# xmcd CD database file
#
# Track frame offsets:
#	187
#	22000
#	39400
#	56200
#	70600
#	84625
#	98650
#	112675
#	130075
#	147850
#
# Disc length: 2165 seconds
#
# Revision: 2
# Processed by: cddbd v1.4PL0 Copyright (c) Steve Scherf et al.
# Submitted via: CDex 1.50Beta7
#
DISCID=7d08730a
DTITLE=Al Rapone and The Zydeco Express - C'est La Vie!
DYEAR=1984
DGENRE=Blues
TTITLE0=C'est La Vie
TTITLE1=Married Man BLues
TTITLE2=Je Vas Revenir
TTITLE3=Benladette
TTITLE4=Without You
TTITLE5=Alice Mae
TTITLE6=Chère Duloone
TTITLE7=Walkin' Papers Blues
TTITLE8=Fait Pas Sa
TTITLE9=Washboard Anna
EXTD=YEAR: 1984
EXTT0=
EXTT1=
EXTT2=
EXTT3=
EXTT4=
EXTT5=
EXTT6=
EXTT7=
EXTT8=
EXTT9=
PLAYORDER=
